<svg viewBox="0 0 1080 1080" fill="none" xmlns="http://www.w3.org/2000/svg">      <defs>  <filter id="filter" x="-20%" y="-20%" width="140%" height="140%" filterUnits="objectBoundingBox" primitiveUnits="userSpaceOnUse" color-interpolation-filters="linearRGB">    <feMorphology operator="dilate" radius="20 20" in="SourceAlpha" result="morphology"/>    <feFlood flood-color="#ffffff" flood-opacity="1" result="flood"/>    <feComposite in="flood" in2="morphology" operator="in" result="composite"/>    <feMerge result="merge">          <feMergeNode in="composite" result="mergeNode"/>      <feMergeNode in="SourceGraphic" result="mergeNode1"/>      </feMerge>  </filter></defs>      <g id="notion-avatar" filter="url(#filter)">        <g id="notion-avatar-face" fill="#ffffff">      <!--?xml version="1.0" encoding="UTF-8"?-->    <title>Face/ 10</title>    <g id="Face/-10" stroke="none" stroke-width="1" fill-rule="evenodd" stroke-linecap="round" stroke-linejoin="round">        <path d="M532,379 C664.54834,379 772,486.45166 772,619 C772,751.54834 684.54834,899 592,899 C535.13263,899 351.668898,801.612202 313.752775,718.980575 L313.322946,718.989282 L312,719 C267.81722,719 232,683.18278 232,639 C232,599.134956 261.158843,566.080325 299.312086,560.00055 C325.599297,455.979213 419.809919,379 532,379 Z M295.858895,624.545187 L304.141105,655.454813" id="Path" stroke="#000000" stroke-width="24"/>    </g>    </g><g id="notion-avatar-nose">      <g id="Nose/ 11"><path id="Path" fill-rule="evenodd" clip-rule="evenodd" d="M648.516 601C648.516 601 664.222 603.637 672 609.977C685.06 620.622 693.906 641.256 692.774 653.58C690.065 683.076 644 684.359 644 684.359C644 684.359 700 689.489 700 653.58C700 637.222 689.433 619.065 672 608.695C663.922 603.889 648.516 601 648.516 601Z" fill="black" stroke="black" stroke-width="6" stroke-linecap="round" stroke-linejoin="round"/></g>    </g><g id="notion-avatar-mouth">      <g id="Mouth/ 15"><g id="Group"><path id="Path" d="M505.348 782.386C505.348 782.386 499.053 772.522 503.446 759.4C507.839 746.278 519.439 740.299 519.439 740.299" stroke="black" stroke-width="6" stroke-linecap="round" stroke-linejoin="round"/><path id="Path_2" fill-rule="evenodd" clip-rule="evenodd" d="M545.613 766.395L615.22 752.181L643.717 751.83L664.424 746.139L688.54 748.846C688.54 748.846 671.891 755.298 639.869 759.23C607.847 763.161 545.613 766.395 545.613 766.395Z" stroke="black" stroke-width="12" stroke-linecap="round" stroke-linejoin="round"/><path id="Path_3" d="M611 803C611 803 626.338 804.035 634 803C641.662 801.965 648 798 648 798" stroke="black" stroke-width="6" stroke-linecap="round" stroke-linejoin="round"/></g></g>    </g><g id="notion-avatar-eyes">      <g id="Eyes/ 12"><g id="Group 2"><path id="Path" fill-rule="evenodd" clip-rule="evenodd" d="M534 528.156C534 528.156 562.569 554.438 586.169 549.907C609.769 545.375 599.832 520 599.832 520C599.832 520 614.738 546.282 593.622 554.438C572.506 562.595 534 528.156 534 528.156Z" fill="black" stroke="black" stroke-width="6" stroke-linecap="round" stroke-linejoin="round"/><path id="Path_2" fill-rule="evenodd" clip-rule="evenodd" d="M672 528.156C672 528.156 700.569 554.438 724.169 549.907C747.769 545.375 737.832 520 737.832 520C737.832 520 752.738 546.282 731.622 554.438C710.506 562.595 672 528.156 672 528.156Z" fill="black" stroke="black" stroke-width="6" stroke-linecap="round" stroke-linejoin="round"/></g></g>    </g><g id="notion-avatar-eyebrows">      <!--?xml version="1.0" encoding="UTF-8"?-->    <title>Eyebrows/ 9</title>    <g id="Eyebrows/-9" stroke="none" stroke-width="1" fill="none" fill-rule="evenodd" stroke-linecap="round" stroke-linejoin="round">        <g id="Group" transform="translate(502.000000, 462.000000)" stroke="#000000" stroke-width="24">            <path d="M0,0 C0,0 23.2233275,2.61265093 76,22 C79.9624314,23.4555871 87.2957648,28.1222537 98,36" id="Path"/>            <path d="M176,0 C176,0 199.223328,2.61265093 252,22 C255.962431,23.4555871 263.295765,28.1222537 274,36" id="Path" transform="translate(225.000000, 18.000000) scale(-1, 1) translate(-225.000000, -18.000000) "/>        </g>    </g>    </g><g id="notion-avatar-glasses">      <g id="Glasses/ 12"><g id="Group"><path id="Path" fill-rule="evenodd" clip-rule="evenodd" d="M805.209 500.217C805.813 491.284 798.652 484 789.699 484H455C446.163 484 439 491.163 439 500V575.76C439 580.706 441.26 585.352 445.249 588.275C465.881 603.396 532.959 650 575.94 650C627.244 650 619.761 588.343 666.321 588.343C712.881 588.343 690.97 650 747.116 640.514C791.7 632.982 802.608 538.717 805.209 500.217Z" fill="white" stroke="black" stroke-width="12" stroke-linecap="round" stroke-linejoin="round"/><g id="Group_2"><path id="Mask" fill-rule="evenodd" clip-rule="evenodd" d="M783.642 509.995C783.893 505.509 780.3 501.847 775.807 501.847L465 501.847C460.582 501.847 457 505.428 457 509.847V561.349C457 563.759 458.047 566.008 459.946 567.493C474.566 578.927 540.245 628.47 580.546 628.47C611.607 628.47 603.397 573.489 662.087 568.491C720.777 563.492 704.644 623.472 742.954 620.14C775.033 617.35 782.169 536.288 783.642 509.995Z" fill="black"/><mask id="mask0_0_1157" style="mask-type:alpha" maskUnits="userSpaceOnUse" x="457" y="501" width="327" height="128"><path id="Mask_2" fill-rule="evenodd" clip-rule="evenodd" d="M783.642 509.995C783.893 505.509 780.3 501.847 775.807 501.847L465 501.847C460.582 501.847 457 505.428 457 509.847V561.349C457 563.759 458.047 566.008 459.946 567.493C474.566 578.927 540.245 628.47 580.546 628.47C611.607 628.47 603.397 573.489 662.087 568.491C720.777 563.492 704.644 623.472 742.954 620.14C775.033 617.35 782.169 536.288 783.642 509.995Z" fill="white"/></mask><g mask="url(#mask0_0_1157)"><path id="Path_2" d="M671.808 492.742L781.264 580.828" stroke="white" stroke-width="16" stroke-linecap="round" stroke-linejoin="round"/><path id="Path_3" d="M696.436 478.979L805.892 567.065" stroke="white" stroke-width="8" stroke-linecap="round" stroke-linejoin="round"/></g></g><path id="Path_4" fill-rule="evenodd" clip-rule="evenodd" d="M439 492.036L284 523V566.875L439 552V492.036Z" fill="black" stroke="black" stroke-width="12" stroke-linecap="round" stroke-linejoin="round"/></g></g>    </g><g id="notion-avatar-hair">      <!--?xml version="1.0" encoding="UTF-8"?-->    <title>Hairstyle/ 3</title>    <g id="Hairstyle/-3" stroke="none" stroke-width="1" fill="none" fill-rule="evenodd" stroke-linecap="round" stroke-linejoin="round">        <path d="M468,155 C494.413508,155 517.505024,169.223139 530.033478,190.428348 C542.638883,179.566707 559.052573,173 577,173 C607.278861,173 633.192307,191.690562 643.83239,218.163736 C650.523576,216.106563 657.632562,215 665,215 C699.786693,215 728.811394,239.670025 735.533019,272.468992 C768.002006,279.12141 793,314 793,343 C793,372 789.333333,379 782,405 C774.666667,431 761.666667,458.333333 743,487 L742.487847,486.071181 C738.468171,478.85706 732.305556,469.5 724,458 C719.654204,451.982745 713.183929,446.346749 708,441 C703.288148,442.688186 700.961321,443.835284 697.999909,444.579207 C634.162314,458.31332 585.060234,463.786515 550.69367,460.998791 L543.474261,460.399732 L540.29429,460.150618 C513.724479,458.137897 460.670673,455.9739 427,477 C388.41902,501.092406 375.286815,555.63188 372.093734,571.530134 L371.83052,572.876479 L371.66972,573.747986 C369.058511,588.2233 367.192111,614.492798 366.07052,652.556479 L366,655 L328.116663,564.824988 L287.145773,564.824988 L287.123625,564.742696 C285.105011,564.913266 283.062634,565 281,565 C241.235498,565 209,532.764502 209,493 C209,462.831845 227.554139,436.997241 253.873676,426.284928 C238.060403,413.079216 228,393.214474 228,371 C228,331.235498 260.235498,299 300,299 C301.933893,299 303.849978,299.076244 305.745413,299.225891 C302.046294,290.559511 300,281.018724 300,271 C300,231.235498 332.235498,199 372,199 C381.775632,199 391.096237,200.948197 399.594739,204.477513 C409.046897,175.744373 436.100894,155 468,155 Z" id="Path" stroke="#000000" stroke-width="12" fill="#000000"/>    </g>    </g><g id="notion-avatar-accessories">      <!--?xml version="1.0" encoding="UTF-8"?-->    <title>Accessories/ 0</title>    <g id="Accessories/-0" stroke="none" stroke-width="1" fill="none" fill-rule="evenodd"/>    </g><g id="notion-avatar-details">      <!--?xml version="1.0" encoding="UTF-8"?-->    <title>Details/ 0</title>    <g id="Details/-0" stroke="none" stroke-width="1" fill="none" fill-rule="evenodd"/>    </g><g id="notion-avatar-beard">      <!--?xml version="1.0" encoding="UTF-8"?-->    <title>Beard/ 0</title>    <g id="Beard/-0" stroke="none" stroke-width="1" fill="none" fill-rule="evenodd"/>    </g>      </g>      </svg>